<?xml version="1.0" standalone="no"?>
<!DOCTYPE svg PUBLIC "-//W3C//DTD SVG 20010904//EN"
 "http://www.w3.org/TR/2001/REC-SVG-20010904/DTD/svg10.dtd">
<svg version="1.0" xmlns="http://www.w3.org/2000/svg"
 width="700.000000pt" height="700.000000pt" viewBox="0 0 700.000000 700.000000"
 preserveAspectRatio="xMidYMid meet">
<g transform="translate(0.000000,700.000000) scale(0.100000,-0.100000)"
fill="#000000" stroke="none">
<path d="M755 6245 l-25 -24 0 -2721 0 -2721 25 -24 24 -25 2721 0 2721 0 24
25 25 24 0 2721 0 2721 -25 24 -24 25 -2721 0 -2721 0 -24 -25z m3562 -2728
c606 -1354 1105 -2470 1109 -2479 6 -17 -103 -18 -2200 -18 l-2206 0 0 2480 0
2480 1098 0 1097 0 1102 -2463z m1663 -17 l0 -2480 -113 0 -112 0 -1108 2473
c-609 1360 -1107 2476 -1107 2480 0 4 549 7 1220 7 l1220 0 0 -2480z"/>
<path d="M1614 3947 c-2 -7 -3 -62 -2 -123 l3 -109 238 -3 237 -2 0 -650 0
-650 135 0 135 0 0 650 0 650 238 2 237 3 0 120 0 120 -608 3 c-496 2 -608 0
-613 -11z"/>
<path d="M2644 3443 c3 -10 104 -247 224 -528 l219 -509 -33 -85 c-71 -180
-110 -216 -231 -207 l-72 4 -6 -51 c-3 -29 -7 -79 -8 -111 l-2 -60 40 -9 c60
-13 193 -1 260 24 73 27 142 93 184 178 35 69 531 1338 531 1358 0 10 -30 13
-131 13 l-130 0 -13 -32 c-7 -18 -66 -189 -131 -380 -64 -191 -120 -346 -124
-344 -4 3 -71 174 -151 380 l-144 376 -144 0 c-132 0 -143 -1 -138 -17z"/>
<path d="M4669 5739 c-127 -74 -75 -269 71 -269 42 0 102 35 124 71 23 38 23
110 0 148 -22 37 -82 71 -125 71 -19 0 -50 -10 -70 -21z"/>
<path d="M5112 5743 c-50 -24 -77 -69 -77 -128 0 -148 188 -199 265 -73 73
120 -62 264 -188 201z"/>
<path d="M5551 5743 c-48 -25 -73 -63 -78 -120 -10 -112 105 -187 206 -135 96
48 106 181 20 245 -38 28 -106 32 -148 10z"/>
</g>
</svg>
